<?xml version="1.0" encoding="UTF-8" standalone="no"?>
<svg
   xmlns:dc="http://purl.org/dc/elements/1.1/"
   xmlns:cc="http://creativecommons.org/ns#"
   xmlns:rdf="http://www.w3.org/1999/02/22-rdf-syntax-ns#"
   xmlns:svg="http://www.w3.org/2000/svg"
   xmlns="http://www.w3.org/2000/svg"
   xmlns:sodipodi="http://sodipodi.sourceforge.net/DTD/sodipodi-0.dtd"
   xmlns:inkscape="http://www.inkscape.org/namespaces/inkscape"
   width="324.77118"
   height="114.07488"
   viewBox="0 0 85.929044 30.18231"
   version="1.1"
   id="svg3298"
   sodipodi:docname="logotext.svg"
   inkscape:version="1.0.2-2 (e86c870879, 2021-01-15)">
  <sodipodi:namedview
     pagecolor="#ffffff"
     bordercolor="#666666"
     borderopacity="1"
     objecttolerance="10"
     gridtolerance="10"
     guidetolerance="10"
     inkscape:pageopacity="0"
     inkscape:pageshadow="2"
     inkscape:window-width="1920"
     inkscape:window-height="1057"
     id="namedview9"
     showgrid="false"
     inkscape:zoom="2.0574998"
     inkscape:cx="44.590481"
     inkscape:cy="105.96276"
     inkscape:window-x="-8"
     inkscape:window-y="-8"
     inkscape:window-maximized="1"
     inkscape:current-layer="svg3298" />
  <defs
     id="defs3292" />
  <metadata
     id="metadata3295">
    <rdf:RDF>
      <cc:Work
         rdf:about="">
        <dc:format>image/svg+xml</dc:format>
        <dc:type
           rdf:resource="http://purl.org/dc/dcmitype/StillImage" />
        <dc:title></dc:title>
      </cc:Work>
    </rdf:RDF>
  </metadata>
  <g
     id="layer1"
     transform="translate(13.399556,10.500232)">
    <path
       id="rect1056"
       style="fill:#8431d4;fill-opacity:1;stroke:none;stroke-width:0.753815;stroke-miterlimit:4;stroke-dasharray:none;stroke-opacity:1"
       d="M -10.901,-10.499651 -0.90161037,14.500399 4.1006676,2.0013486 -0.90161037,-10.499651 Z m 19.9987796,25.00005 -0.49868,1.24995 h 0.99994 z" />
    <path
       id="rect1056-1"
       style="fill:#8431d4;fill-opacity:1;fill-rule:nonzero;stroke:none;stroke-width:0.376914;stroke-miterlimit:4;stroke-dasharray:none;stroke-opacity:1"
       d="m -13.399556,-10.500232 4.9996951,12.5056896 h 1.5012005 L -11.900939,-10.500232 Z" />
    <rect
       style="fill:#e2e9e9;fill-opacity:1;stroke:none;stroke-width:0.78232;stroke-miterlimit:4;stroke-dasharray:none;stroke-opacity:1"
       id="rect1056-6"
       width="10"
       height="28.272116"
       x="-15.899351"
       y="-11.308799"
       transform="matrix(-1,0,-0.37139068,0.92847669,0,0)" />
  </g>
  <g
     aria-label="aryex"
     id="text836"
     style="font-size:19.7556px;line-height:1.25;font-family:'Space Mono';-inkscape-font-specification:'Space Mono';letter-spacing:-0.264583px;opacity:1;fill:#ffffff;fill-opacity:1;stroke-width:0.264583;stroke-miterlimit:4;stroke-dasharray:none"
     transform="translate(1.0583333,0.25718916)">
    <path
       d="m 34.525003,24.5516 q -0.395112,0.928513 -1.106313,1.323625 -0.711202,0.375356 -1.659471,0.375356 -0.889002,0 -1.679226,-0.335845 -0.770468,-0.335845 -1.363136,-0.98778 -0.592668,-0.651935 -0.948269,-1.580448 -0.335845,-0.928513 -0.335845,-2.113849 v -0.31609 q 0,-1.16558 0.335845,-2.094093 0.335845,-0.928514 0.908758,-1.580448 0.572912,-0.651935 1.323625,-0.98778 0.770468,-0.355601 1.639715,-0.355601 1.047047,0 1.679226,0.355601 0.651935,0.3556 1.027291,1.106313 h 0.355601 v -1.185336 h 2.489205 v 6.835438 q 0,0.592668 0.533402,0.592668 h 0.375356 v 2.370672 h -1.698982 q -0.67169,0 -1.106313,-0.395112 -0.414868,-0.395112 -0.414868,-1.027291 z m -2.212627,-0.671691 q 1.086558,0 1.738493,-0.711201 0.651935,-0.730958 0.651935,-1.97556 V 20.95608 q 0,-1.244602 -0.651935,-1.955804 -0.651935,-0.730957 -1.738493,-0.730957 -1.086558,0 -1.738493,0.730957 -0.651934,0.711202 -0.651934,1.955804 v 0.237068 q 0,1.244602 0.651934,1.97556 0.651935,0.711201 1.738493,0.711201 z"
       style="font-style:normal;font-variant:normal;font-weight:600;font-stretch:normal;font-size:19.7556px;font-family:'Space Mono';-inkscape-font-specification:'Space Mono Semi-Bold';opacity:0.998;fill:#ffffff;fill-opacity:1;fill-rule:nonzero;stroke-width:0.264583;stroke-miterlimit:4;stroke-dasharray:none"
       id="path840" />
    <path
       d="m 39.535157,16.175225 h 4.148676 v 1.422403 h 0.3556 q 0.276579,-0.809979 0.928514,-1.244602 0.67169,-0.454379 1.600203,-0.454379 1.461915,0 2.350917,0.928513 0.889002,0.908758 0.889002,2.78554 v 0.434623 l -2.568228,0.237067 v -0.276578 q 0,-0.80998 -0.414868,-1.284114 -0.414868,-0.49389 -1.244603,-0.49389 -0.829735,0 -1.303869,0.572912 -0.474135,0.572912 -0.474135,1.639715 v 3.160896 h 2.252139 v 2.370672 h -6.756416 v -2.370672 h 2.015072 v -5.057434 h -1.778004 z"
       style="font-style:normal;font-variant:normal;font-weight:600;font-stretch:normal;font-size:19.7556px;font-family:'Space Mono';-inkscape-font-specification:'Space Mono Semi-Bold';opacity:0.998;fill:#ffffff;fill-opacity:1;fill-rule:nonzero;stroke-width:0.264583;stroke-miterlimit:4;stroke-dasharray:none"
       id="path842" />
    <path
       d="m 58.473008,16.175225 h 2.489205 v 12.208961 q 0,0.67169 -0.434623,1.106314 -0.414867,0.434623 -1.086558,0.434623 H 53.61313 v -2.370672 h 4.326477 q 0.533401,0 0.533401,-0.592668 V 24.5516 h -0.355601 q -0.651935,1.698981 -2.805295,1.698981 -0.730957,0 -1.363137,-0.237067 -0.632179,-0.237067 -1.106313,-0.730957 -0.474135,-0.49389 -0.750713,-1.224847 -0.256823,-0.750713 -0.256823,-1.758249 v -6.124236 h 2.489206 v 5.610591 q 0,1.047046 0.49389,1.639714 0.49389,0.572913 1.48167,0.572913 1.126069,0 1.639715,-0.711202 0.533401,-0.730957 0.533401,-1.97556 z"
       style="font-style:normal;font-variant:normal;font-weight:600;font-stretch:normal;font-size:19.7556px;font-family:'Space Mono';-inkscape-font-specification:'Space Mono Semi-Bold';opacity:0.998;fill:#ffffff;fill-opacity:1;fill-rule:nonzero;stroke-width:0.264583;stroke-miterlimit:4;stroke-dasharray:none"
       id="path844" />
    <path
       d="m 65.853832,21.884594 q 0.01976,0.434623 0.197556,0.809979 0.197556,0.355601 0.513646,0.632179 0.335845,0.256823 0.750713,0.414868 0.434623,0.138289 0.908757,0.138289 0.928513,0 1.422403,-0.316089 0.49389,-0.335846 0.711202,-0.790224 l 2.133605,1.185336 q -0.177801,0.375356 -0.49389,0.790224 -0.31609,0.395112 -0.829735,0.730957 -0.49389,0.335845 -1.224848,0.553157 -0.711201,0.217311 -1.679226,0.217311 -1.106313,0 -2.015071,-0.355601 -0.908757,-0.3556 -1.580448,-1.027291 -0.651935,-0.67169 -1.027291,-1.639715 -0.355601,-0.968024 -0.355601,-2.192871 v -0.118534 q 0,-1.126069 0.375357,-2.054582 0.395112,-0.928513 1.066802,-1.580448 0.67169,-0.651935 1.560692,-1.007536 0.908758,-0.375356 1.936049,-0.375356 1.264359,0 2.173116,0.454379 0.908758,0.434623 1.501426,1.126069 0.592668,0.67169 0.869246,1.501425 0.276579,0.80998 0.276579,1.580448 v 1.323626 z m 2.350917,-3.733809 q -0.948269,0 -1.540937,0.49389 -0.592668,0.474135 -0.770469,1.106314 h 4.622811 Q 70.39762,19.059543 69.765441,18.605164 69.153017,18.150785 68.204749,18.150785 Z"
       style="font-style:normal;font-variant:normal;font-weight:600;font-stretch:normal;font-size:19.7556px;font-family:'Space Mono';-inkscape-font-specification:'Space Mono Semi-Bold';opacity:0.998;fill:#ffffff;fill-opacity:1;fill-rule:nonzero;stroke-width:0.264583;stroke-miterlimit:4;stroke-dasharray:none"
       id="path846" />
    <path
       d="m 81.986389,16.175225 h 2.746028 l -2.370672,4.603055 v 0.355601 l 2.508962,4.840122 h -2.864562 l -1.837271,-3.832587 h -0.355601 l -1.837271,3.832587 H 75.11144 l 2.508962,-4.840122 V 20.77828 l -2.390428,-4.603055 h 2.765784 l 1.817515,3.595519 h 0.355601 z"
       style="font-style:normal;font-variant:normal;font-weight:600;font-stretch:normal;font-size:19.7556px;font-family:'Space Mono';-inkscape-font-specification:'Space Mono Semi-Bold';opacity:0.998;fill:#ffffff;fill-opacity:1;fill-rule:nonzero;stroke-width:0.264583;stroke-miterlimit:4;stroke-dasharray:none"
       id="path848" />
  </g>
</svg>
